<svg width="16" height="17" viewBox="0 0 16 17" fill="none" xmlns="http://www.w3.org/2000/svg">
<path d="M3.33337 8.49992V6.66168C3.33337 5.89058 3.33337 5.50503 3.43828 5.19402C3.63787 4.60229 4.10241 4.13775 4.69415 3.93816C5.00515 3.83325 5.3907 3.83325 6.1618 3.83325V3.83325C6.49925 3.83325 6.66797 3.83325 6.82884 3.85965C7.13285 3.90954 7.42122 4.02899 7.67147 4.20868C7.80389 4.30377 7.92319 4.42307 8.1618 4.66168L8.36688 4.86675C8.74165 5.24153 8.92904 5.42892 9.15043 5.55869C9.30882 5.65153 9.47924 5.72212 9.65688 5.76847C9.90519 5.83325 10.1702 5.83325 10.7002 5.83325V5.83325C11.9146 5.83325 12.5219 5.83325 12.9772 6.0882C13.2991 6.26844 13.5648 6.53422 13.7451 6.85612C14 7.31143 14 7.91865 14 9.13308V9.83325C14 11.0794 14 11.7025 13.7321 12.1666C13.5566 12.4706 13.3041 12.7231 13 12.8986C12.5359 13.1666 11.9129 13.1666 10.6667 13.1666V13.1666" stroke="white" stroke-opacity="0.72"/>
<path d="M2.66663 11.5001H8.66663M8.66663 11.5001L6.33329 9.16675M8.66663 11.5001L6.33329 13.8334" stroke="white" stroke-opacity="0.72"/>
</svg>
