<svg width="16" height="17" viewBox="0 0 16 17" fill="none" xmlns="http://www.w3.org/2000/svg">
<path opacity="0.8" d="M11.3334 13.8182H4.66671C2.66671 13.8182 1.33337 12.8182 1.33337 10.4849V5.8182C1.33337 3.48486 2.66671 2.48486 4.66671 2.48486H11.3334C13.3334 2.48486 14.6667 3.48486 14.6667 5.8182V10.4849C14.6667 12.8182 13.3334 13.8182 11.3334 13.8182Z" fill="#FF480B" fill-opacity="0.38"/>
<path d="M8.00006 8.73183C7.44006 8.73183 6.87339 8.5585 6.44006 8.20517L4.35339 6.5385C4.14005 6.36517 4.10006 6.05183 4.27339 5.8385C4.44672 5.62517 4.76006 5.58517 4.97339 5.7585L7.06005 7.42517C7.56672 7.83184 8.42672 7.83184 8.93338 7.42517L11.0201 5.7585C11.2334 5.58517 11.5534 5.6185 11.7201 5.8385C11.8934 6.05183 11.8601 6.37184 11.6401 6.5385L9.55339 8.20517C9.12672 8.5585 8.56006 8.73183 8.00006 8.73183Z" fill="#FF480B"/>
</svg>
