<svg width="16" height="17" viewBox="0 0 16 17" fill="none" xmlns="http://www.w3.org/2000/svg">
<path d="M11.7467 7.3181C11.46 7.3181 11.2334 7.08477 11.2334 6.80477C11.2334 6.5581 10.9867 6.04477 10.5734 5.5981C10.1667 5.16477 9.72004 4.91143 9.34671 4.91143C9.06004 4.91143 8.83337 4.6781 8.83337 4.3981C8.83337 4.1181 9.06671 3.88477 9.34671 3.88477C10.0134 3.88477 10.7134 4.24477 11.3267 4.89143C11.9 5.4981 12.2667 6.25143 12.2667 6.7981C12.2667 7.08477 12.0334 7.3181 11.7467 7.3181Z" fill="#FF480B"/>
<path d="M14.1533 7.3182C13.8666 7.3182 13.64 7.08486 13.64 6.80486C13.64 4.4382 11.7133 2.5182 9.3533 2.5182C9.06663 2.5182 8.83997 2.28486 8.83997 2.00486C8.83997 1.72486 9.06663 1.48486 9.34663 1.48486C12.28 1.48486 14.6666 3.87153 14.6666 6.80486C14.6666 7.08486 14.4333 7.3182 14.1533 7.3182Z" fill="#FF480B"/>
<path opacity="0.4" d="M7.86004 9.62486L5.68004 11.8049C5.44004 11.5915 5.20671 11.3715 4.98004 11.1449C4.29337 10.4515 3.67337 9.72486 3.12004 8.96486C2.57337 8.20486 2.13337 7.44486 1.81337 6.69153C1.49337 5.93153 1.33337 5.20486 1.33337 4.51153C1.33337 4.0582 1.41337 3.62486 1.57337 3.22486C1.73337 2.8182 1.98671 2.44486 2.34004 2.11153C2.76671 1.69153 3.23337 1.48486 3.72671 1.48486C3.91337 1.48486 4.10004 1.52486 4.26671 1.60486C4.44004 1.68486 4.59337 1.80486 4.71337 1.9782L6.26004 4.1582C6.38004 4.32486 6.46671 4.4782 6.52671 4.62486C6.58671 4.76486 6.62004 4.90486 6.62004 5.03153C6.62004 5.19153 6.57337 5.35153 6.48004 5.50486C6.39337 5.6582 6.26671 5.8182 6.10671 5.9782L5.60004 6.50486C5.52671 6.5782 5.49337 6.66486 5.49337 6.77153C5.49337 6.82486 5.50004 6.87153 5.51337 6.92486C5.53337 6.9782 5.55337 7.0182 5.56671 7.0582C5.68671 7.2782 5.89337 7.56486 6.18671 7.91153C6.48671 8.2582 6.80671 8.61153 7.15337 8.96486C7.39337 9.1982 7.62671 9.42486 7.86004 9.62486Z" fill="#FF480B"/>
<path d="M14.6467 12.3717C14.6467 12.5584 14.6134 12.7517 14.5467 12.9384C14.5267 12.9917 14.5067 13.0451 14.48 13.0984C14.3667 13.3384 14.22 13.5651 14.0267 13.7784C13.7 14.1384 13.34 14.3984 12.9334 14.5651C12.9267 14.5651 12.92 14.5717 12.9134 14.5717C12.52 14.7317 12.0934 14.8184 11.6334 14.8184C10.9534 14.8184 10.2267 14.6584 9.46002 14.3317C8.69336 14.0051 7.92669 13.5651 7.16669 13.0117C6.90669 12.8184 6.64669 12.6251 6.40002 12.4184L8.58002 10.2384C8.76669 10.3784 8.93336 10.4851 9.07336 10.5584C9.10669 10.5717 9.14669 10.5917 9.19336 10.6117C9.24669 10.6317 9.30002 10.6384 9.36002 10.6384C9.47336 10.6384 9.56002 10.5984 9.63336 10.5251L10.14 10.0251C10.3067 9.85839 10.4667 9.73172 10.62 9.65172C10.7734 9.55839 10.9267 9.51172 11.0934 9.51172C11.22 9.51172 11.3534 9.53839 11.5 9.59839C11.6467 9.65839 11.8 9.74505 11.9667 9.85839L14.1734 11.4251C14.3467 11.5451 14.4667 11.6851 14.54 11.8517C14.6067 12.0184 14.6467 12.1851 14.6467 12.3717Z" fill="#FF480B"/>
</svg>
